*******************************************************************************
                  Carnage Road (2000) DVDRip - RadioResearch
*******************************************************************************

-------------------------------------------------------------------------------
                              General Information
-------------------------------------------------------------------------------
Type.................: Movie



Video Format.........: AVI
Video Bitrate........: 1996
Resolution...........: 624 x 480
Color................: 8 bit
FPS..................: 29.970
Source...............: DVD 4x3
Original Format......: NTSC
Genre................: Horror
IMDb Rating..........: 2.3
Movie Information....: http://www.imdb.com/title/tt0259233/

-------------------------------------------------------------------------------
                               Post Information
-------------------------------------------------------------------------------
Posted by............: RadioResearch
Posted on............: 5/13/2013

-------------------------------------------------------------------------------
                                 Release Notes
-------------------------------------------------------------------------------
SEEDBOX SUPPORTED!!

AKA  Carnage: The Legend of Quiltface

The Legend of Quiltface is true and the stories of his murders are 
legendary.  Anyone foolish enough to incite his wrath will learn that every 
path leads to Carnage!  Four students set out for the barren Nevada desert on a 
class photography assignment. They are soon confronted by a machete-wielding 
maniac known as Quiltface. 

This little piece of schlock is almost an homage to The Hills Have Eyes and 
Texas Chainsaw Massacre.  Comments on this film have ranged from "trash" to 
"Hilarious!" to "Watch this only under the influence of alcohol."  It has its 
hilarious moments and gives it the ol' college try, and is a bit of a cult 
classic, so have at it and fill your boots!

Enjoy!

RadioResearch

General
Complete name                            : G:Carnage Road (2000) DVDRip - 
RadioResearchCarnage Road - {RadioResearch}.avi
Format                                   : AVI
Format/Info                              : Audio Video Interleave
File size                                : 993 MiB
Duration                                 : 1h 9mn
Overall bit rate                         : 1 996 Kbps
Movie name                               : DVDVOLUME.Title1.DVDRip
Writing application                      : Lavf53.32.100
Original source form/Name                : DVDVOLUME

Video
ID                                       : 0
Format                                   : MPEG-4 Visual
Format profile                           : Advanced Simple@L5
Format settings, BVOP                    : 2
Format settings, QPel                    : No
Format settings, GMC                     : No warppoints
Format settings, Matrix                  : Default (H.263)
Muxing mode                              : Packed bitstream
Codec ID                                 : XVID
Codec ID/Hint                            : XviD
Duration                                 : 1h 9mn
Bit rate                                 : 1 792 Kbps
Width                                    : 624 pixels
Height                                   : 480 pixels
Display aspect ratio                     : 4:3
Frame rate                               : 29.970 fps
Color space                              : YUV
Chroma subsampling                       : 4:2:0
Bit depth                                : 8 bits
Scan type                                : Progressive
Compression mode                         : Lossy
Bits/(Pixel*Frame)                       : 0.200
Stream size                              : 892 MiB (90%)
Writing library                          : XviD 64

Audio
ID                                       : 1
Format                                   : AC-3
Format/Info                              : Audio Coding 3
Mode extension                           : CM (complete main)
Format settings, Endianness              : Big
Codec ID                                 : 2000
Duration                                 : 1h 9mn
Bit rate mode                            : Constant
Bit rate                                 : 192 Kbps
Channel(s)                               : 2 channels
Channel positions                        : Front: L R
Sampling rate                            : 48.0 KHz
Bit depth                                : 16 bits
Compression mode                         : Lossy
Stream size                              : 95.5 MiB (10%)
Alignment                                : Aligned on interleaves
Interleave, duration                     : 32 ms (0.96 video frame)

AVI FILE MD5 HASH  35a2b13ee2551e98364b3597578b4c5f



-------------------------------------------------------------------------------
Generated with Cool NFO Creator - http://fly.to/coolbeans
-------------------------------------------------------------------------------
